<mxfile host="app.diagrams.net" agent="Mozilla/5.0 (Windows NT 10.0; Win64; x64) AppleWebKit/537.36 (KHTML, like Gecko) Chrome/129.0.0.0 Safari/537.36" version="24.7.17">
  <diagram name="Page-1" id="cNZdpOuZNmtpLcTgZA60">
    <mxGraphModel dx="1434" dy="772" grid="1" gridSize="10" guides="1" tooltips="1" connect="1" arrows="1" fold="1" page="1" pageScale="1" pageWidth="850" pageHeight="1100" math="0" shadow="0">
      <root>
        <mxCell id="0" />
        <mxCell id="1" parent="0" />
        <mxCell id="qiqJG782mWVqDvagTHqF-11" style="edgeStyle=orthogonalEdgeStyle;rounded=0;orthogonalLoop=1;jettySize=auto;html=1;entryX=0.5;entryY=0;entryDx=0;entryDy=0;" edge="1" parent="1" source="qiqJG782mWVqDvagTHqF-2" target="qiqJG782mWVqDvagTHqF-9">
          <mxGeometry relative="1" as="geometry" />
        </mxCell>
        <mxCell id="qiqJG782mWVqDvagTHqF-2" value="Begin" style="rounded=1;whiteSpace=wrap;html=1;" vertex="1" parent="1">
          <mxGeometry x="350" y="50" width="120" height="60" as="geometry" />
        </mxCell>
        <mxCell id="qiqJG782mWVqDvagTHqF-13" value="" style="edgeStyle=orthogonalEdgeStyle;rounded=0;orthogonalLoop=1;jettySize=auto;html=1;" edge="1" parent="1" source="qiqJG782mWVqDvagTHqF-9" target="qiqJG782mWVqDvagTHqF-12">
          <mxGeometry relative="1" as="geometry" />
        </mxCell>
        <mxCell id="qiqJG782mWVqDvagTHqF-9" value="Bake a cake" style="rounded=0;whiteSpace=wrap;html=1;" vertex="1" parent="1">
          <mxGeometry x="350" y="150" width="120" height="60" as="geometry" />
        </mxCell>
        <mxCell id="qiqJG782mWVqDvagTHqF-15" value="" style="edgeStyle=orthogonalEdgeStyle;rounded=0;orthogonalLoop=1;jettySize=auto;html=1;" edge="1" parent="1" source="qiqJG782mWVqDvagTHqF-12" target="qiqJG782mWVqDvagTHqF-14">
          <mxGeometry relative="1" as="geometry" />
        </mxCell>
        <mxCell id="qiqJG782mWVqDvagTHqF-12" value="Gather the ingredients&amp;nbsp;" style="rounded=0;whiteSpace=wrap;html=1;" vertex="1" parent="1">
          <mxGeometry x="350" y="250" width="120" height="60" as="geometry" />
        </mxCell>
        <mxCell id="qiqJG782mWVqDvagTHqF-17" value="" style="edgeStyle=orthogonalEdgeStyle;rounded=0;orthogonalLoop=1;jettySize=auto;html=1;" edge="1" parent="1" source="qiqJG782mWVqDvagTHqF-14" target="qiqJG782mWVqDvagTHqF-16">
          <mxGeometry relative="1" as="geometry" />
        </mxCell>
        <mxCell id="qiqJG782mWVqDvagTHqF-14" value="Make a dough&amp;nbsp;" style="rounded=0;whiteSpace=wrap;html=1;" vertex="1" parent="1">
          <mxGeometry x="350" y="340" width="120" height="60" as="geometry" />
        </mxCell>
        <mxCell id="qiqJG782mWVqDvagTHqF-19" value="" style="edgeStyle=orthogonalEdgeStyle;rounded=0;orthogonalLoop=1;jettySize=auto;html=1;" edge="1" parent="1" source="qiqJG782mWVqDvagTHqF-16" target="qiqJG782mWVqDvagTHqF-18">
          <mxGeometry relative="1" as="geometry" />
        </mxCell>
        <mxCell id="qiqJG782mWVqDvagTHqF-23" value="" style="edgeStyle=orthogonalEdgeStyle;rounded=0;orthogonalLoop=1;jettySize=auto;html=1;" edge="1" parent="1" source="qiqJG782mWVqDvagTHqF-16" target="qiqJG782mWVqDvagTHqF-22">
          <mxGeometry relative="1" as="geometry" />
        </mxCell>
        <mxCell id="qiqJG782mWVqDvagTHqF-16" value="Oven is ready&amp;nbsp;" style="rhombus;whiteSpace=wrap;html=1;rounded=0;" vertex="1" parent="1">
          <mxGeometry x="360" y="430" width="100" height="100" as="geometry" />
        </mxCell>
        <mxCell id="qiqJG782mWVqDvagTHqF-31" value="" style="edgeStyle=orthogonalEdgeStyle;rounded=0;orthogonalLoop=1;jettySize=auto;html=1;" edge="1" parent="1" source="qiqJG782mWVqDvagTHqF-18" target="qiqJG782mWVqDvagTHqF-30">
          <mxGeometry relative="1" as="geometry" />
        </mxCell>
        <mxCell id="qiqJG782mWVqDvagTHqF-18" value="Put in the cake in the oven&amp;nbsp;" style="whiteSpace=wrap;html=1;rounded=0;" vertex="1" parent="1">
          <mxGeometry x="510" y="450" width="120" height="60" as="geometry" />
        </mxCell>
        <mxCell id="qiqJG782mWVqDvagTHqF-20" value="yes" style="text;html=1;align=center;verticalAlign=middle;resizable=0;points=[];autosize=1;strokeColor=none;fillColor=none;" vertex="1" parent="1">
          <mxGeometry x="460" y="480" width="40" height="30" as="geometry" />
        </mxCell>
        <mxCell id="qiqJG782mWVqDvagTHqF-25" style="edgeStyle=orthogonalEdgeStyle;rounded=0;orthogonalLoop=1;jettySize=auto;html=1;entryX=0;entryY=0.5;entryDx=0;entryDy=0;" edge="1" parent="1" source="qiqJG782mWVqDvagTHqF-22" target="qiqJG782mWVqDvagTHqF-16">
          <mxGeometry relative="1" as="geometry">
            <Array as="points">
              <mxPoint x="290" y="610" />
              <mxPoint x="290" y="480" />
            </Array>
          </mxGeometry>
        </mxCell>
        <mxCell id="qiqJG782mWVqDvagTHqF-22" value="Wait until the oven is ready&amp;nbsp;" style="whiteSpace=wrap;html=1;rounded=0;" vertex="1" parent="1">
          <mxGeometry x="350" y="580" width="120" height="60" as="geometry" />
        </mxCell>
        <mxCell id="qiqJG782mWVqDvagTHqF-24" value="No" style="text;html=1;align=center;verticalAlign=middle;resizable=0;points=[];autosize=1;strokeColor=none;fillColor=none;" vertex="1" parent="1">
          <mxGeometry x="415" y="535" width="40" height="30" as="geometry" />
        </mxCell>
        <mxCell id="qiqJG782mWVqDvagTHqF-37" value="" style="edgeStyle=orthogonalEdgeStyle;rounded=0;orthogonalLoop=1;jettySize=auto;html=1;" edge="1" parent="1" source="qiqJG782mWVqDvagTHqF-30" target="qiqJG782mWVqDvagTHqF-36">
          <mxGeometry relative="1" as="geometry" />
        </mxCell>
        <mxCell id="qiqJG782mWVqDvagTHqF-45" value="" style="edgeStyle=orthogonalEdgeStyle;rounded=0;orthogonalLoop=1;jettySize=auto;html=1;" edge="1" parent="1" source="qiqJG782mWVqDvagTHqF-30" target="qiqJG782mWVqDvagTHqF-44">
          <mxGeometry relative="1" as="geometry" />
        </mxCell>
        <mxCell id="qiqJG782mWVqDvagTHqF-30" value="The cake is ready" style="rhombus;whiteSpace=wrap;html=1;rounded=0;" vertex="1" parent="1">
          <mxGeometry x="497.5" y="660" width="145" height="120" as="geometry" />
        </mxCell>
        <mxCell id="qiqJG782mWVqDvagTHqF-40" style="edgeStyle=orthogonalEdgeStyle;rounded=0;orthogonalLoop=1;jettySize=auto;html=1;entryX=0.5;entryY=0;entryDx=0;entryDy=0;" edge="1" parent="1" source="qiqJG782mWVqDvagTHqF-36" target="qiqJG782mWVqDvagTHqF-38">
          <mxGeometry relative="1" as="geometry" />
        </mxCell>
        <mxCell id="qiqJG782mWVqDvagTHqF-36" value="Take out the cake out&amp;nbsp;" style="whiteSpace=wrap;html=1;rounded=0;" vertex="1" parent="1">
          <mxGeometry x="735" y="690" width="120" height="60" as="geometry" />
        </mxCell>
        <mxCell id="qiqJG782mWVqDvagTHqF-38" value="Stop" style="rounded=1;whiteSpace=wrap;html=1;" vertex="1" parent="1">
          <mxGeometry x="735" y="800" width="120" height="60" as="geometry" />
        </mxCell>
        <mxCell id="qiqJG782mWVqDvagTHqF-41" value="Yes" style="text;html=1;align=center;verticalAlign=middle;resizable=0;points=[];autosize=1;strokeColor=none;fillColor=none;" vertex="1" parent="1">
          <mxGeometry x="647.5" y="690" width="40" height="30" as="geometry" />
        </mxCell>
        <mxCell id="qiqJG782mWVqDvagTHqF-42" value="No" style="text;html=1;align=center;verticalAlign=middle;resizable=0;points=[];autosize=1;strokeColor=none;fillColor=none;" vertex="1" parent="1">
          <mxGeometry x="585" y="780" width="40" height="30" as="geometry" />
        </mxCell>
        <mxCell id="qiqJG782mWVqDvagTHqF-46" style="edgeStyle=orthogonalEdgeStyle;rounded=0;orthogonalLoop=1;jettySize=auto;html=1;entryX=0;entryY=0.5;entryDx=0;entryDy=0;" edge="1" parent="1" source="qiqJG782mWVqDvagTHqF-44" target="qiqJG782mWVqDvagTHqF-30">
          <mxGeometry relative="1" as="geometry">
            <Array as="points">
              <mxPoint x="460" y="900" />
              <mxPoint x="460" y="720" />
            </Array>
          </mxGeometry>
        </mxCell>
        <mxCell id="qiqJG782mWVqDvagTHqF-44" value="Wait until the cake is ready&amp;nbsp;" style="rounded=0;whiteSpace=wrap;html=1;" vertex="1" parent="1">
          <mxGeometry x="510" y="870" width="120" height="60" as="geometry" />
        </mxCell>
      </root>
    </mxGraphModel>
  </diagram>
</mxfile>
